<svg xmlns="http://www.w3.org/2000/svg" xmlns:xlink="http://www.w3.org/1999/xlink" viewBox="0 0 171.7 233.48">
<defs>
<style>.cls-1{fill:#fafafa;}.cls-2{fill:#c8c8c8;}.cls-3{fill:url(#linear-gradient);}.cls-4{fill:url(#linear-gradient-2);}.cls-5{fill:url(#linear-gradient-3);}.cls-6{fill:url(#linear-gradient-4);}
#shadow {filter: drop-shadow(rgb(0, 0, 0) 3px 3px 3px);}
</style>

<linearGradient id="linear-gradient" x1="30.67" y1="92.4" x2="141.45" y2="203.95" gradientUnits="userSpaceOnUse">
<stop offset="0" stop-color="#934510"/>
<stop offset="0.5" stop-color="#d3661c"/>
<stop offset="1" stop-color="#fb7a23"/>
</linearGradient>

<linearGradient id="linear-gradient-2" x1="30.36" y1="92.35" x2="141" y2="203.25" gradientUnits="userSpaceOnUse">
<stop offset="0" stop-color="gray"/>
<stop offset="1" stop-color="#f2f2f2"/>
</linearGradient>

<linearGradient id="linear-gradient-3" x1="409.17" y1="-81.09" x2="499.44" y2="-158.75" gradientTransform="matrix(0.56, 0, 0, -0.57, -136.72, 82.94)" gradientUnits="userSpaceOnUse">
<stop offset="0" stop-color="#5a9fd4"/>
<stop offset="1" stop-color="#306998"/>
</linearGradient>

<linearGradient id="linear-gradient-4" x1="534.33" y1="-205.76" x2="502.1" y2="-160.15" gradientTransform="matrix(0.56, 0, 0, -0.57, -136.72, 82.94)" gradientUnits="userSpaceOnUse">
<stop offset="0" stop-color="#ffd43b"/>
<stop offset="1" stop-color="#ffe873"/>
</linearGradient>
</defs>

<title>ITEM_PYTHON</title>

<g id="icon_item" data-name="icon item">
<path class="cls-1" d="M65.7,258.29a9.93,9.93,0,0,1-9.92-9.92V34.73a9.93,9.93,0,0,1,9.92-9.92H168.1V71.43a12.78,12.78,0,0,0,12.76,12.76h46.62V248.37a9.93,9.93,0,0,1-9.92,9.92Z" transform="translate(-55.78 -24.81)"/>
<path class="cls-2" d="M180.86,77.1h41.52a2.84,2.84,0,0,0,2-4.84L180,27.9a2.84,2.84,0,0,0-4.84,2V71.43A5.68,5.68,0,0,0,180.86,77.1Z" transform="translate(-55.78 -24.81)"/>
<path d="M80.89,58.11a3.41,3.41,0,1,1,0-6.81H143a3.41,3.41,0,0,1,0,6.81Z" transform="translate(-55.78 -24.81)"/>
<path d="M80.89,93.37a3.41,3.41,0,1,1,0-6.81H143a3.41,3.41,0,0,1,0,6.81Z" transform="translate(-55.78 -24.81)"/>
</g>

<g id="python">
<g id="shadow">
<rect class="cls-4" x="22.18" y="84.29" width="127.56" height="127.56" rx="28.35" ry="28.35"/>
<path  id="shadow"  class="cls-5" d="M141.18,126.35a62.88,62.88,0,0,0-10.6.91c-9.4,1.66-11.1,5.13-11.1,11.54v8.46h22.2v2.82H111.14c-6.45,0-12.1,3.88-13.87,11.25-2,8.46-2.12,13.74,0,22.57,1.58,6.57,5.35,11.25,11.8,11.25h7.64V185a14.11,14.11,0,0,1,13.87-13.79h22.17a11.18,11.18,0,0,0,11.1-11.28V138.8c0-6-5.07-10.54-11.1-11.54A68.44,68.44,0,0,0,141.18,126.35Zm-12,6.81A4.23,4.23,0,1,1,125,137.4,4.21,4.21,0,0,1,129.18,133.16Z" transform="translate(-55.78 -24.81)"/>
<path  id="shadow"  class="cls-6" d="M166.62,150.08v9.86A14.24,14.24,0,0,1,152.75,174H130.58a11.32,11.32,0,0,0-11.1,11.28v21.14c0,6,5.23,9.56,11.1,11.29a37.17,37.17,0,0,0,22.17,0c5.59-1.62,11.1-4.88,11.1-11.29V198H141.68v-2.82H175c6.45,0,8.86-4.5,11.1-11.25,2.32-7,2.22-13.65,0-22.57-1.59-6.42-4.64-11.25-11.1-11.25Zm-12.47,53.53a4.23,4.23,0,1,1-4.17,4.22A4.19,4.19,0,0,1,154.15,203.61Z" transform="translate(-55.78 -24.81)"/>
</g></g>
</svg>
